<svg width="18" height="18" viewBox="-2.5 0 24 18" fill="none" xmlns="http://www.w3.org/2000/svg">
<path fill-rule="evenodd" clip-rule="evenodd" d="M5.334 4.00001H19C19.1615 4.00054 19.3205 4.04006 19.4634 4.11522C19.6064 4.19037 19.7291 4.29893 19.8211 4.43167C19.913 4.56441 19.9716 4.7174 19.9918 4.87763C20.012 5.03786 19.9932 5.2006 19.937 5.35201L16.937 13.352C16.79 13.741 16.417 14 16 14H8C7.597 14 7.232 13.757 7.077 13.385L2.334 2H0V5.07599e-06H2.333C2.72806 -0.000885894 3.11448 0.115533 3.4433 0.334507C3.77211 0.55348 4.02851 0.865148 4.18 1.23001L5.334 4.00001ZM13 10H15V8H13H11H9V10H11H13ZM8.5 18C9.32843 18 10 17.3284 10 16.5C10 15.6716 9.32843 15 8.5 15C7.67157 15 7 15.6716 7 16.5C7 17.3284 7.67157 18 8.5 18ZM15.5 18C16.3284 18 17 17.3284 17 16.5C17 15.6716 16.3284 15 15.5 15C14.6716 15 14 15.6716 14 16.5C14 17.3284 14.6716 18 15.5 18Z" fill="white"/>
</svg>
